<svg width="200mm" height="200mm" viewBox="0 0 1800 1800" preserveAspectRatio="xMidYMid meet" xmlns="http://www.w3.org/2000/svg"><rect x="0" y="0" width="1800" height="1800" fill="white" stroke="none"/><circle cx="900" cy="900" r="899" fill="white" stroke="black"/><circle cx="900" cy="900" r="700" fill="black" stroke="none"/><circle cx="900" cy="900" r="420" fill="white" stroke="none"/><path stroke="black" d="M900,1800 L900,1775 M900,0 L900,25 M0,900 L25,900 M1800,900 L1775,900"/><path fill="black" stroke="none" d="M900,900 L1550,900 1485.63,617.976 900,900 755.361,266.297 1044.64,266.297 900,900 314.37,617.976 494.732,391.81 900,900 314.37,617.976 250,900 900,900 755.361,1533.7 494.732,1408.19 900,900 1305.27,1408.19 1044.64,1533.7 900,900 1550,900 1485.63,1182.02 900,900 Z"/><text x="1600" y="100" fill="black" font-size="44">&#8635; 9</text><circle cx="900" cy="900" r="240" fill="white" stroke="none"/></svg>