<svg width="200mm" height="200mm" viewBox="0 0 1800 1800" preserveAspectRatio="xMidYMid meet" xmlns="http://www.w3.org/2000/svg"><rect x="0" y="0" width="1800" height="1800" fill="white" stroke="none"/><circle cx="900" cy="900" r="899" fill="white" stroke="black"/><circle cx="900" cy="900" r="700" fill="black" stroke="none"/><circle cx="900" cy="900" r="420" fill="white" stroke="none"/><path stroke="black" d="M900,1800 L900,1775 M900,0 L900,25 M0,900 L25,900 M1800,900 L1775,900"/><path fill="black" stroke="none" d="M900,900 L1550,900 1425.86,517.94 900,900 1100.86,281.813 699.139,281.813 900,900 374.139,1282.06 250,900 900,900 374.139,1282.06 699.139,1518.19 900,900 1550,900 1425.86,1282.06 900,900 Z"/><text x="1600" y="100" fill="black" font-size="44">&#8635; 3</text><circle cx="900" cy="900" r="240" fill="white" stroke="none"/></svg>