<svg width="200mm" height="200mm" viewBox="0 0 1800 1800" preserveAspectRatio="xMidYMid meet" xmlns="http://www.w3.org/2000/svg"><rect x="0" y="0" width="1800" height="1800" fill="white" stroke="none"/><circle cx="900" cy="900" r="899" fill="white" stroke="black"/><circle cx="900" cy="900" r="700" fill="black" stroke="none"/><circle cx="900" cy="900" r="420" fill="white" stroke="none"/><path stroke="black" d="M900,1800 L900,1775 M900,0 L900,25 M0,900 L25,900 M1800,900 L1775,900"/><path fill="black" stroke="none" d="M900,900 L1550,900 1510.8,677.687 900,900 1397.93,482.188 1225,337.083 900,900 1012.87,259.875 787.129,259.875 900,900 289.2,677.687 402.071,482.188 900,900 289.2,677.687 250,900 900,900 289.2,1122.31 402.071,1317.81 900,900 1012.87,1540.13 787.129,1540.13 900,900 1012.87,1540.13 1225,1462.92 900,900 1550,900 1510.8,1122.31 900,900 Z"/><text x="1600" y="100" fill="black" font-size="44">&#8635; 10</text><circle cx="900" cy="900" r="240" fill="white" stroke="none"/></svg>